<?xml version="1.0" encoding="UTF-8"?><svg id="Layer_1" xmlns="http://www.w3.org/2000/svg" viewBox="0 0 81.25 78.329"><path d="M31.313,14.812c.438,0,.781-.344.781-.781v-.938c0-.438-.344-.781-.781-.781s-.781.344-.781.781v.938c0,.438.344.781.781.781Z"/><path d="M40.126,14.812c.438,0,.781-.344.781-.781v-.938c0-.438-.344-.781-.781-.781s-.781.344-.781.781v.938c0,.438.359.781.781.781Z"/><path d="M40.126,21.89c.438,0,.781-.344.781-.781v-.938c0-.438-.344-.781-.781-.781s-.781.344-.781.781v.938c0,.438.359.781.781.781Z"/><path d="M35.72,21.89c.438,0,.781-.344.781-.781v-.938c0-.438-.344-.781-.781-.781s-.781.344-.781.781v.938c0,.438.344.781.781.781Z"/><path d="M31.313,28.953c.438,0,.781-.344.781-.781v-.938c0-.438-.344-.781-.781-.781s-.781.344-.781.781v.938c0,.438.344.781.781.781Z"/><path d="M35.72,28.953c.438,0,.781-.344.781-.781v-.938c0-.438-.344-.781-.781-.781s-.781.344-.781.781v.938c0,.438.344.781.781.781Z"/><path d="M31.313,36.031c.438,0,.781-.344.781-.781v-.938c0-.438-.344-.781-.781-.781s-.781.344-.781.781v.938c0,.438.344.781.781.781Z"/><path d="M40.126,36.031c.438,0,.781-.344.781-.781v-.938c0-.438-.344-.781-.781-.781s-.781.344-.781.781v.938c0,.438.359.781.781.781Z"/><path d="M49.173,14.812c.438,0,.781-.344.781-.781v-.938c0-.438-.344-.781-.781-.781s-.781.344-.781.781v.938c0,.438.359.781.781.781Z"/><path d="M53.579,14.812c.438,0,.781-.344.781-.781v-.938c0-.438-.344-.781-.781-.781s-.781.344-.781.781v.938c0,.438.359.781.781.781Z"/><path d="M49.173,21.89c.438,0,.781-.344.781-.781v-.938c0-.438-.344-.781-.781-.781s-.781.344-.781.781v.938c0,.438.359.781.781.781Z"/><path d="M53.579,21.89c.438,0,.781-.344.781-.781v-.938c0-.438-.344-.781-.781-.781s-.781.344-.781.781v.938c0,.438.359.781.781.781Z"/><path d="M49.173,28.953c.438,0,.781-.344.781-.781v-.938c0-.438-.344-.781-.781-.781s-.781.344-.781.781v.938c0,.438.359.781.781.781Z"/><path d="M57.985,28.953c.438,0,.781-.344.781-.781v-.938c0-.438-.344-.781-.781-.781s-.781.344-.781.781v.938c0,.438.359.781.781.781Z"/><path d="M57.985,36.031c.438,0,.781-.344.781-.781v-.938c0-.438-.344-.781-.781-.781s-.781.344-.781.781v.938c0,.438.359.781.781.781Z"/><path d="M53.579,36.031c.438,0,.781-.344.781-.781v-.938c0-.438-.344-.781-.781-.781s-.781.344-.781.781v.938c0,.438.359.781.781.781Z"/><path d="M80.376,5.25h-3.75V.781c0-.438-.344-.781-.781-.781H4.656c-.438,0-.781.344-.781.781v4.469H.781c-.438,0-.781.344-.781.781v53.438c0,.438.344.781.781.781h4.094v4.719c0,.203.078.391.219.531l5.422,5.688v6.359c0,.438.344.781.781.781s.781-.344.781-.781v-6.234l8.891-5.469c.234-.141.375-.391.375-.672v-4.922h8.016v4.719c0,.203.078.391.219.531l5.422,5.688v6.359c0,.438.344.781.781.781s.781-.344.781-.781v-6.359l5.422-5.688c.141-.141.219-.344.219-.547v-4.719h5.047v4.719c0,.203.078.391.219.531l5.422,5.688v6.359c0,.438.344.781.781.781s.781-.344.781-.781v-6.359l5.422-5.688c.141-.141.219-.344.219-.531v-4.719h5.047v4.719c0,.203.078.391.219.531l5.422,5.688v6.359c0,.438.344.781.781.781s.781-.344.781-.781v-6.359l5.422-5.688c.141-.141.219-.344.219-.547v-4.719h2.484c.438,0,.781-.344.781-.781V6.032c-.094-.438-.438-.781-.875-.781h0ZM79.594,51.984h-16.297V6.812h16.312v45.172h-.015ZM27.563,51.984V6.812h16.297v45.172h-16.297ZM45.438,6.812h16.297v45.172h-16.297V6.812ZM5.438,1.562h69.625v3.688H5.438V1.562ZM4.657,6.812h21.344v45.172H1.563V6.812h3.094ZM1.563,53.546h24.453v5.141H1.563v-5.141ZM10.048,60.234h2.469v4.172l-1.234,3.875-1.234-3.875v-4.172ZM14.048,64.765c.031-.078.031-.156.031-.234v-4.297h2.047v4.406l-3.078,3.234,1-3.109ZM6.438,60.234h2.047v4.297c0,.078.016.156.031.234l.984,3.094-3.078-3.234v-4.391h.016ZM19.782,64.718l-3.766,2.312,1.469-1.547c.141-.141.219-.344.219-.531v-4.719h2.078v4.484ZM27.563,53.546h16.297v5.141h-16.297v-5.141ZM35.767,68.28l-1.234-3.875v-4.172h2.469v4.172l-1.234,3.875ZM30.907,60.233h2.047v4.297c0,.078.016.156.031.234l.984,3.094-3.078-3.234v-4.391h.016ZM40.61,64.639l-3.078,3.234.984-3.094c.031-.078.031-.156.031-.234v-4.297h2.047v4.391h.016ZM45.438,53.545h16.297v5.141h-16.297v-5.141ZM53.626,68.279l-1.234-3.875v-4.172h2.469v4.172l-1.234,3.875ZM48.766,60.232h2.047v4.297c0,.078.016.156.031.234l.984,3.094-3.078-3.234v-4.391h.016ZM58.47,64.639l-3.078,3.234.984-3.094c.031-.078.031-.156.031-.234v-4.297h2.047v4.391h.016ZM66.641,60.232h2.047v4.297c0,.078.016.156.031.234l.984,3.094-3.078-3.234v-4.391h.016ZM72.72,60.232v4.172l-1.234,3.875-1.234-3.875v-4.172h2.469ZM76.345,64.639l-3.078,3.234.984-3.094c.031-.078.031-.156.031-.234v-4.297h2.047v4.391h.016ZM63.298,58.67v-5.141h16.297v5.141h-16.297Z"/><path d="M75.079,13.094v.938c0,.438.344.781.781.781s.781-.344.781-.781v-.938c0-.438-.344-.781-.781-.781s-.781.359-.781.781Z"/><path d="M71.454,14.812c.438,0,.781-.344.781-.781v-.938c0-.438-.344-.781-.781-.781s-.781.344-.781.781v.938c0,.438.344.781.781.781Z"/><path d="M75.86,19.39c-.438,0-.781.344-.781.781v.938c0,.438.344.781.781.781s.781-.344.781-.781v-.938c0-.438-.359-.781-.781-.781Z"/><path d="M71.454,21.89c.438,0,.781-.344.781-.781v-.938c0-.438-.344-.781-.781-.781s-.781.344-.781.781v.938c0,.438.344.781.781.781Z"/><path d="M67.048,28.953c.438,0,.781-.344.781-.781v-.938c0-.438-.344-.781-.781-.781s-.781.344-.781.781v.938c0,.438.344.781.781.781Z"/><path d="M67.048,36.031c.438,0,.781-.344.781-.781v-.938c0-.438-.344-.781-.781-.781s-.781.344-.781.781v.938c0,.438.344.781.781.781Z"/><path d="M75.86,33.531c-.438,0-.781.344-.781.781v.938c0,.438.344.781.781.781s.781-.344.781-.781v-.938c0-.438-.359-.781-.781-.781Z"/><path d="M40.688,43.437h-9.359c-.438,0-.781.344-.781.781s.344.781.781.781h9.359c.438,0,.781-.344.781-.781s-.344-.781-.781-.781Z"/><path d="M58.157,43.437h-9.359c-.438,0-.781.344-.781.781s.344.781.781.781h9.359c.438,0,.781-.344.781-.781s-.359-.781-.781-.781Z"/><path d="M75.829,43.437h-9.359c-.438,0-.781.344-.781.781s.344.781.781.781h9.359c.438,0,.781-.344.781-.781s-.344-.781-.781-.781Z"/><path d="M6.126,26.265h15.312c.438,0,.781-.344.781-.781v-13.766c0-.438-.344-.781-.781-.781H6.126c-.438,0-.781.344-.781.781v13.766c0,.438.344.781.781.781ZM6.907,24.703v-8.391h13.75v8.391H6.907ZM20.657,12.515v2.25H6.907v-2.25h13.75Z"/><path d="M13.673,34.437c-2.141,0-3.891,1.75-3.891,3.891s1.75,3.891,3.891,3.891,3.891-1.75,3.891-3.891-1.75-3.891-3.891-3.891ZM13.673,40.656c-1.281,0-2.328-1.047-2.328-2.328s1.047-2.328,2.328-2.328,2.328,1.047,2.328,2.328-1.047,2.328-2.328,2.328Z"/><path d="M8.235,40.437c.125.062.25.109.391.109s.266-.031.391-.109c.234-.141.391-.391.391-.672v-2.875c0-.281-.156-.531-.391-.672s-.531-.141-.781,0l-2.5,1.438c-.234.141-.391.391-.391.672s.156.531.391.672l2.5,1.438ZM7.844,38.234v.172l-.141-.078.141-.094Z"/><path d="M15.11,42.594h-2.875c-.281,0-.531.156-.672.391s-.141.547,0,.781l1.438,2.484c.141.234.391.391.672.391s.531-.156.672-.391l1.438-2.484c.141-.234.141-.547,0-.781s-.391-.391-.672-.391ZM13.672,44.313l-.078-.141h.172l-.094.141Z"/><path d="M15.11,34.047c.281,0,.531-.156.672-.391s.141-.547,0-.781l-1.438-2.5c-.281-.484-1.078-.484-1.359,0l-1.438,2.5c-.141.234-.141.547,0,.781s.391.391.672.391h2.891ZM13.672,32.344l.078.141h-.172l.094-.141Z"/><path d="M19.126,36.218c-.25-.141-.547-.141-.781,0s-.391.391-.391.672v2.875c0,.281.156.531.391.672.125.062.25.109.391.109s.266-.031.391-.109l2.484-1.438c.234-.141.391-.391.391-.672s-.156-.531-.391-.672l-2.484-1.438ZM19.516,38.406v-.172l.141.078-.141.094Z"/><path d="M12.688,19.39h-3.406c-.438,0-.781.344-.781.781s.344.781.781.781h3.406c.438,0,.781-.344.781-.781s-.344-.781-.781-.781Z"/></svg>